<?xml version="1.0" encoding="UTF-8" standalone="no"?>
<svg
   xmlns:dc="http://purl.org/dc/elements/1.1/"
   xmlns:cc="http://creativecommons.org/ns#"
   xmlns:rdf="http://www.w3.org/1999/02/22-rdf-syntax-ns#"
   xmlns:svg="http://www.w3.org/2000/svg"
   xmlns="http://www.w3.org/2000/svg"
   xmlns:sodipodi="http://sodipodi.sourceforge.net/DTD/sodipodi-0.dtd"
   xmlns:inkscape="http://www.inkscape.org/namespaces/inkscape"
   version="1.1"
   viewBox="0 0 952.50984 457.46696"
   stroke-miterlimit="10"
   id="svg4063"
   inkscape:version="0.48.4 r9939"
   width="100%"
   height="100%"
   sodipodi:docname="CCJP2014-1.svg"
   style="fill:none;stroke:none">
  <metadata
     id="metadata4328">
    <rdf:RDF>
      <cc:Work
         rdf:about="">
        <dc:format>image/svg+xml</dc:format>
        <dc:type
           rdf:resource="http://purl.org/dc/dcmitype/StillImage" />
      </cc:Work>
    </rdf:RDF>
  </metadata>
  <defs
     id="defs4326">
    <marker
       inkscape:stockid="Arrow2Mend"
       orient="auto"
       refY="0"
       refX="0"
       id="Arrow2Mend"
       style="overflow:visible">
      <path
         id="path5434"
         d="M 8.7185878,4.0337352 -2.2072895,0.01601326 8.7185884,-4.0017078 c -1.7454984,2.3720609 -1.7354408,5.6174519 -6e-7,8.035443 z"
         transform="scale(-0.6,-0.6)"
         inkscape:connector-curvature="0" />
    </marker>
    <marker
       inkscape:stockid="Arrow2Mend"
       orient="auto"
       refY="0"
       refX="0"
       id="Arrow2Mend-2"
       style="overflow:visible">
      <path
         id="path5434-5"
         d="M 8.7185878,4.0337352 -2.2072895,0.01601326 8.7185884,-4.0017078 c -1.7454984,2.3720609 -1.7354408,5.6174519 -6e-7,8.035443 z"
         transform="scale(-0.6,-0.6)"
         inkscape:connector-curvature="0" />
    </marker>
    <marker
       inkscape:stockid="Arrow2Mend"
       orient="auto"
       refY="0"
       refX="0"
       id="marker6045"
       style="overflow:visible">
      <path
         id="path6047"
         d="M 8.7185878,4.0337352 -2.2072895,0.01601326 8.7185884,-4.0017078 c -1.7454984,2.3720609 -1.7354408,5.6174519 -6e-7,8.035443 z"
         transform="scale(-0.6,-0.6)"
         inkscape:connector-curvature="0" />
    </marker>
    <marker
       inkscape:stockid="Arrow2Mend"
       orient="auto"
       refY="0"
       refX="0"
       id="marker6049"
       style="overflow:visible">
      <path
         id="path6051"
         d="M 8.7185878,4.0337352 -2.2072895,0.01601326 8.7185884,-4.0017078 c -1.7454984,2.3720609 -1.7354408,5.6174519 -6e-7,8.035443 z"
         transform="scale(-0.6,-0.6)"
         inkscape:connector-curvature="0" />
    </marker>
  </defs>
  <sodipodi:namedview
     pagecolor="#ffffff"
     bordercolor="#666666"
     borderopacity="1"
     objecttolerance="10"
     gridtolerance="10"
     guidetolerance="10"
     inkscape:pageopacity="0"
     inkscape:pageshadow="2"
     inkscape:window-width="1641"
     inkscape:window-height="1742"
     id="namedview4324"
     showgrid="false"
     fit-margin-top="0"
     fit-margin-left="0"
     fit-margin-right="0"
     fit-margin-bottom="0"
     inkscape:zoom="1"
     inkscape:cx="347.52852"
     inkscape:cy="-79.599836"
     inkscape:window-x="12"
     inkscape:window-y="42"
     inkscape:window-maximized="0"
     inkscape:current-layer="svg4063" />
  <clipPath
     id="p.0">
    <path
       d="M 0,0 969,0 969,753 0,753 0,0 z"
       clip-rule="nonzero"
       id="path4066"
       inkscape:connector-curvature="0" />
  </clipPath>
  <path
     style="fill:#999999;fill-rule:nonzero;stroke:none"
     inkscape:connector-curvature="0"
     id="path4086"
     d="m 147.95735,370.27709 -2.15625,0 0,4.09375 -1.87501,0 0,-4.09375 -6.96875,0 0,-2.25 7.04688,-8.20313 1.79688,0 0,8.89063 2.15625,0 0,1.5625 z m -4.03126,-1.5625 0,-6.5625 -5.64062,6.5625 5.64062,0 z m 15.58985,5.65625 -7.875,0 0,-1.48438 3.03125,0 0,-9.75 -3.03125,0 0,-1.32812 q 0.60937,0 1.3125,-0.0937 0.70312,-0.10938 1.0625,-0.29688 0.45312,-0.25 0.70312,-0.625 0.26563,-0.375 0.3125,-1.01562 l 1.51563,0 0,13.10937 2.96875,0 0,1.48438 z m 13.51172,-7.28125 q 0,3.92187 -1.21875,5.75 -1.21875,1.82812 -3.79688,1.82812 -2.625,0 -3.82812,-1.84375 -1.20313,-1.85937 -1.20313,-5.70312 0,-3.89063 1.21875,-5.73438 1.21875,-1.84375 3.8125,-1.84375 2.60938,0 3.8125,1.875 1.20313,1.875 1.20313,5.67188 z m -2.5625,4.4375 q 0.34375,-0.79688 0.46875,-1.85938 0.125,-1.0625 0.125,-2.57812 0,-1.48438 -0.125,-2.57813 -0.125,-1.09375 -0.48438,-1.84375 -0.32812,-0.76562 -0.92187,-1.14062 -0.59375,-0.375 -1.51563,-0.375 -0.92187,0 -1.53125,0.375 -0.59375,0.375 -0.95312,1.15625 -0.32813,0.71875 -0.45313,1.89062 -0.10937,1.15625 -0.10937,2.54688 0,1.51562 0.0937,2.54687 0.10937,1.01563 0.46875,1.82813 0.3125,0.76562 0.90625,1.17187 0.59375,0.39063 1.57812,0.39063 0.90625,0 1.51563,-0.375 0.60937,-0.39063 0.9375,-1.15625 z m 14.54296,2.84375 -1.84375,0 0,-1.14063 q -0.78125,0.6875 -1.64061,1.0625 -0.85938,0.375 -1.87501,0.375 -1.95312,0 -3.09375,-1.5 -1.14062,-1.5 -1.14062,-4.17187 0,-1.39063 0.39062,-2.46875 0.39063,-1.07813 1.0625,-1.84375 0.67188,-0.75 1.54688,-1.14063 0.89062,-0.39062 1.84375,-0.39062 0.85937,0 1.51563,0.1875 0.67186,0.1875 1.39061,0.5625 l 0,-4.73438 1.84375,0 0,15.20313 z m -1.84375,-2.6875 0,-6.26563 q -0.73437,-0.32812 -1.32812,-0.45312 -0.57812,-0.125 -1.26562,-0.125 -1.54688,0 -2.40625,1.07812 -0.85938,1.0625 -0.85938,3.04688 0,1.9375 0.65625,2.95312 0.67188,1 2.14063,1 0.78125,0 1.57813,-0.34375 0.79686,-0.34375 1.48436,-0.89062 z m 15.03906,-4.59375 q 0,3.92187 -1.21875,5.75 -1.21875,1.82812 -3.79687,1.82812 -2.625,0 -3.82813,-1.84375 -1.20312,-1.85937 -1.20312,-5.70312 0,-3.89063 1.21875,-5.73438 1.21875,-1.84375 3.8125,-1.84375 2.60937,0 3.8125,1.875 1.20312,1.875 1.20312,5.67188 z m -2.5625,4.4375 q 0.34375,-0.79688 0.46875,-1.85938 0.125,-1.0625 0.125,-2.57812 0,-1.48438 -0.125,-2.57813 -0.125,-1.09375 -0.48437,-1.84375 -0.32813,-0.76562 -0.92188,-1.14062 -0.59375,-0.375 -1.51562,-0.375 -0.92188,0 -1.53125,0.375 -0.59375,0.375 -0.95313,1.15625 -0.32812,0.71875 -0.45312,1.89062 -0.10938,1.15625 -0.10938,2.54688 0,1.51562 0.0937,2.54687 0.10938,1.01563 0.46875,1.82813 0.3125,0.76562 0.90625,1.17187 0.59375,0.39063 1.57813,0.39063 0.90625,0 1.51562,-0.375 0.60938,-0.39063 0.9375,-1.15625 z m 13.76172,2.15625 q -0.92187,0.4375 -1.75,0.6875 -0.8125,0.25 -1.75,0.25 -1.17187,0 -2.17187,-0.34375 -0.98438,-0.35938 -1.6875,-1.0625 -0.70313,-0.70313 -1.09375,-1.76563 -0.39063,-1.07812 -0.39063,-2.51562 0,-2.67188 1.46875,-4.1875 1.46875,-1.53125 3.875,-1.53125 0.9375,0 1.84375,0.26562 0.90625,0.25 1.65625,0.64063 l 0,2.03125 -0.0937,0 q -0.84375,-0.65625 -1.73437,-1 -0.89063,-0.35938 -1.75,-0.35938 -1.5625,0 -2.46875,1.0625 -0.89063,1.04688 -0.89063,3.07813 0,1.96875 0.875,3.03125 0.89063,1.0625 2.48438,1.0625 0.5625,0 1.14062,-0.14063 0.57813,-0.15625 1.03125,-0.39062 0.40625,-0.20313 0.75,-0.4375 0.35938,-0.23438 0.5625,-0.39063 l 0.0937,0 0,2.01563 z m 12.07617,-3.35938 q 0,1.875 -1.48438,3.125 -1.46875,1.25 -3.6875,1.25 -2.35937,0 -3.76562,-1.21875 -1.40625,-1.21875 -1.40625,-3.125 0,-1.20312 0.70312,-2.1875 0.70313,-0.98437 1.98438,-1.5625 l 0,-0.0625 q -1.17188,-0.625 -1.73438,-1.35937 -0.5625,-0.75 -0.5625,-1.85938 0,-1.64062 1.34375,-2.73437 1.35938,-1.09375 3.4375,-1.09375 2.17188,0 3.46875,1.04687 1.3125,1.04688 1.3125,2.65625 0,0.98438 -0.625,1.9375 -0.60937,0.95313 -1.79687,1.48438 l 0,0.0625 q 1.35937,0.59375 2.07812,1.45312 0.73438,0.85938 0.73438,2.1875 z m -2.32813,-7.10937 q 0,-1.04688 -0.8125,-1.65625 -0.79687,-0.625 -2.04687,-0.625 -1.21875,0 -2.01563,0.59375 -0.78125,0.57812 -0.78125,1.57812 0,0.70313 0.39063,1.21875 0.40625,0.5 1.20312,0.90625 0.35938,0.17188 1.03125,0.45313 0.6875,0.28125 1.32813,0.46875 0.96875,-0.64063 1.32812,-1.32813 0.375,-0.70312 0.375,-1.60937 z m 0.3125,7.28125 q 0,-0.89063 -0.40625,-1.42188 -0.39062,-0.54687 -1.54687,-1.09375 -0.45313,-0.21875 -1,-0.40625 -0.54688,-0.1875 -1.45313,-0.51562 -0.875,0.46875 -1.40625,1.29687 -0.53125,0.8125 -0.53125,1.85938 0,1.3125 0.90625,2.17187 0.90625,0.85938 2.29688,0.85938 1.42187,0 2.28125,-0.73438 0.85937,-0.73437 0.85937,-2.01562 z m 13.07422,3.1875 q -0.92187,0.4375 -1.75,0.6875 -0.8125,0.25 -1.75,0.25 -1.17187,0 -2.17187,-0.34375 -0.98438,-0.35938 -1.6875,-1.0625 -0.70313,-0.70313 -1.09375,-1.76563 -0.39063,-1.07812 -0.39063,-2.51562 0,-2.67188 1.46875,-4.1875 1.46875,-1.53125 3.875,-1.53125 0.9375,0 1.84375,0.26562 0.90625,0.25 1.65625,0.64063 l 0,2.03125 -0.0937,0 q -0.84375,-0.65625 -1.73437,-1 -0.89063,-0.35938 -1.75,-0.35938 -1.5625,0 -2.46875,1.0625 -0.89063,1.04688 -0.89063,3.07813 0,1.96875 0.875,3.03125 0.89063,1.0625 2.48438,1.0625 0.5625,0 1.14062,-0.14063 0.57813,-0.15625 1.03125,-0.39062 0.40625,-0.20313 0.75,-0.4375 0.35938,-0.23438 0.5625,-0.39063 l 0.0937,0 0,2.01563 z m 8.13867,-4.79688 -6.09375,0 0,-1.76562 6.09375,0 0,1.76562 z" />
  <path
     style="fill:#999999;fill-rule:nonzero;stroke:none"
     inkscape:connector-curvature="0"
     id="path4088"
     d="m 147.7386,394.32396 q 0,1.875 -1.48438,3.125 -1.46875,1.25 -3.6875,1.25 -2.35938,0 -3.76563,-1.21875 -1.40625,-1.21875 -1.40625,-3.125 0,-1.20313 0.70313,-2.1875 0.70312,-0.98438 1.98437,-1.5625 l 0,-0.0625 q -1.17187,-0.625 -1.73437,-1.35938 -0.5625,-0.75 -0.5625,-1.85937 0,-1.64063 1.34375,-2.73438 1.35937,-1.09375 3.4375,-1.09375 2.17187,0 3.46875,1.04688 1.3125,1.04687 1.3125,2.65625 0,0.98437 -0.625,1.9375 -0.60937,0.95312 -1.79688,1.48437 l 0,0.0625 q 1.35938,0.59375 2.07813,1.45313 0.73438,0.85937 0.73438,2.1875 z m -2.32813,-7.10938 q 0,-1.04687 -0.8125,-1.65625 -0.79688,-0.625 -2.04688,-0.625 -1.21875,0 -2.01562,0.59375 -0.78125,0.57813 -0.78125,1.57813 0,0.70312 0.39062,1.21875 0.40625,0.5 1.20313,0.90625 0.35937,0.17187 1.03125,0.45312 0.6875,0.28125 1.32812,0.46875 0.96875,-0.64062 1.32813,-1.32812 0.375,-0.70313 0.375,-1.60938 z m 0.3125,7.28125 q 0,-0.89062 -0.40625,-1.42187 -0.39063,-0.54688 -1.54688,-1.09375 -0.45312,-0.21875 -1,-0.40625 -0.54687,-0.1875 -1.45312,-0.51563 -0.875,0.46875 -1.40625,1.29688 -0.53125,0.8125 -0.53125,1.85937 0,1.3125 0.90625,2.17188 0.90625,0.85937 2.29687,0.85937 1.42188,0 2.28125,-0.73437 0.85938,-0.73438 0.85938,-2.01563 z m 13.33984,-3.125 q 0.46875,0.42188 0.76563,1.0625 0.3125,0.625 0.3125,1.625 0,1 -0.375,1.82813 -0.35938,0.82812 -1.01563,1.45312 -0.71875,0.67188 -1.71875,1 -0.98437,0.32813 -2.17187,0.32813 -1.20313,0 -2.375,-0.29688 -1.17188,-0.28125 -1.9375,-0.60937 l 0,-2.04688 0.15625,0 q 0.82812,0.54688 1.95312,0.90625 1.125,0.35938 2.17188,0.35938 0.60937,0 1.29687,-0.20313 0.70313,-0.20312 1.125,-0.60937 0.45313,-0.42188 0.67188,-0.9375 0.21875,-0.51563 0.21875,-1.3125 0,-0.78125 -0.25,-1.29688 -0.25,-0.51562 -0.6875,-0.79687 -0.4375,-0.3125 -1.0625,-0.42188 -0.625,-0.10937 -1.34375,-0.10937 l -0.89063,0 0,-1.625 0.6875,0 q 1.48438,0 2.35938,-0.60938 0.89062,-0.625 0.89062,-1.82812 0,-0.51563 -0.21875,-0.90625 -0.21875,-0.40625 -0.625,-0.65625 -0.42187,-0.25 -0.90625,-0.34375 -0.46875,-0.10938 -1.07812,-0.10938 -0.92188,0 -1.96875,0.34375 -1.04688,0.32813 -1.96875,0.92188 l -0.10938,0 0,-2.03125 q 0.70313,-0.34375 1.85938,-0.625 1.15625,-0.29688 2.23437,-0.29688 1.0625,0 1.875,0.20313 0.8125,0.1875 1.46875,0.60937 0.70313,0.46875 1.0625,1.14063 0.35938,0.65625 0.35938,1.54687 0,1.21875 -0.85938,2.125 -0.84375,0.89063 -2.01562,1.125 l 0,0.14063 q 0.46875,0.0781 1.07812,0.32812 0.60938,0.25 1.03125,0.625 z m 13.23047,7 -1.84375,0 0,-1.14062 q -0.78125,0.6875 -1.64062,1.0625 -0.85938,0.375 -1.875,0.375 -1.95313,0 -3.09375,-1.5 -1.14063,-1.5 -1.14063,-4.17188 0,-1.39062 0.39063,-2.46875 0.39062,-1.07812 1.0625,-1.84375 0.67187,-0.75 1.54687,-1.14062 0.89063,-0.39063 1.84375,-0.39063 0.85938,0 1.51563,0.1875 0.67187,0.1875 1.39062,0.5625 l 0,-4.73437 1.84375,0 0,15.20312 z m -1.84375,-2.6875 0,-6.26562 q -0.73437,-0.32813 -1.32812,-0.45313 -0.57813,-0.125 -1.26563,-0.125 -1.54687,0 -2.40625,1.07813 -0.85937,1.0625 -0.85937,3.04687 0,1.9375 0.65625,2.95313 0.67187,1 2.14062,1 0.78125,0 1.57813,-0.34375 0.79687,-0.34375 1.48437,-0.89063 z m 8.46094,2.6875 -2.34375,0 0,-2.78125 2.34375,0 0,2.78125 z m 7.27539,0 -2.34375,0 0,-2.78125 2.34375,0 0,2.78125 z m 7.27539,0 -2.34375,0 0,-2.78125 2.34375,0 0,2.78125 z" />
  <path
     style="fill:#000000;fill-opacity:0;fill-rule:nonzero;stroke:none"
     inkscape:connector-curvature="0"
     id="path4090"
     d="m 228.19684,261.56713 119.77954,0 0,48.00001 -119.77954,0 z" />
  <path
     style="fill:#000000;fill-rule:nonzero;stroke:none"
     inkscape:connector-curvature="0"
     id="path4254"
     d="m 442.89104,427.03783 1.90625,0 0,1.90625 -1.90625,0 0,-1.90625 z m 0,6.32813 1.90625,0 0,1.90625 -1.90625,0 0,-1.90625 z m 0,6.32812 1.90625,0 0,1.92188 -1.90625,0 0,-1.92188 z m 0,5.5 1.90625,0 0,1.90625 -1.90625,0 0,-1.90625 z m 0,5.18335 1.90625,0 0,1.90625 -1.90625,0 0,-1.90625 z m 0,5.18329 1.90625,0 0,1.90625 -1.90625,0 0,-1.90625 z" />
  <path
     style="fill:#000000;fill-opacity:0;fill-rule:nonzero;stroke:none"
     inkscape:connector-curvature="0"
     id="path4256"
     d="m -1.1133698e-5,194.77974 950.519721133698,0" />
  <path
     style="fill:none;stroke:#000000;stroke-width:2;stroke-linecap:butt;stroke-linejoin:round"
     inkscape:connector-curvature="0"
     id="path4258"
     d="m 1.9999889,261.77975 950.5197211,0" />
  <path
     style="fill:#ff9900;fill-rule:nonzero;stroke:none"
     inkscape:connector-curvature="0"
     id="path4260"
     d="m 182.48687,35.212805 182.98689,0 0,42.25984 -182.98689,0 0,-42.25984 z"
     shape-rendering="crispEdges" />
  <path
     style="fill:#ff9900;fill-rule:nonzero;stroke:none"
     inkscape:connector-curvature="0"
     id="path4262"
     d="m 365.47375,35.212805 182.98688,0 0,42.25984 -182.98688,0 0,-42.25984 z"
     shape-rendering="crispEdges" />
  <path
     style="fill:#ff9900;fill-rule:nonzero;stroke:none"
     inkscape:connector-curvature="0"
     id="path4264"
     d="m 548.46063,35.212805 182.98688,0 0,42.25984 -182.98688,0 0,-42.25984 z"
     shape-rendering="crispEdges" />
  <path
     style="fill:none;stroke:#000000;stroke-width:1;stroke-linecap:butt"
     inkscape:connector-curvature="0"
     id="path4266"
     d="m 182.48687,34.714115 0,154.763775" />
  <path
     style="fill:none;stroke:#000000;stroke-width:1;stroke-linecap:butt"
     inkscape:connector-curvature="0"
     id="path4268"
     d="m 365.47375,34.714115 0,154.763775" />
  <path
     style="fill:none;stroke:#000000;stroke-width:1;stroke-linecap:butt"
     inkscape:connector-curvature="0"
     id="path4270"
     d="m 548.46063,34.714115 0,154.763775" />
  <path
     style="fill:none;stroke:#000000;stroke-width:1;stroke-linecap:butt"
     inkscape:connector-curvature="0"
     id="path4272"
     d="m 731.44748,34.714115 0,154.763775" />
  <path
     style="fill:none;stroke:#000000;stroke-width:1;stroke-linecap:butt"
     inkscape:connector-curvature="0"
     id="path4274"
     d="m 181.98818,35.212805 549.95801,0" />
  <path
     style="fill:none;stroke:#000000;stroke-width:1;stroke-linecap:butt"
     inkscape:connector-curvature="0"
     id="path4276"
     d="m 181.98818,77.472645 549.95801,0" />
  <path
     style="fill:none;stroke:#000000;stroke-width:1;stroke-linecap:butt"
     inkscape:connector-curvature="0"
     id="path4278"
     d="m 181.98818,144.66949 549.95801,0" />
  <path
     style="fill:none;stroke:#000000;stroke-width:1;stroke-linecap:butt"
     inkscape:connector-curvature="0"
     id="path4280"
     d="m 181.98818,188.9792 549.95801,0" />
  <path
     style="fill:#000000;fill-rule:nonzero;stroke:none"
     inkscape:connector-curvature="0"
     id="path4282"
     d="m 192.75249,50.445305 0,-1.90625 1.67187,0 0,1.90625 -1.67187,0 z m 0,11.6875 0,-9.85938 1.67187,0 0,9.85938 -1.67187,0 z m 10.51982,0 0,-1.25 q -0.9375,1.46875 -2.75,1.46875 -1.17187,0 -2.17187,-0.64063 -0.98438,-0.65625 -1.53125,-1.8125 -0.53125,-1.17187 -0.53125,-2.6875 0,-1.46875 0.48437,-2.67187 0.5,-1.20313 1.46875,-1.84375 0.98438,-0.64063 2.20313,-0.64063 0.89062,0 1.57812,0.375 0.70313,0.375 1.14063,0.98438 l 0,-4.875 1.65625,0 0,13.59375 -1.54688,0 z m -5.28125,-4.92188 q 0,1.89063 0.79688,2.82813 0.8125,0.9375 1.89062,0.9375 1.09375,0 1.85938,-0.89063 0.76562,-0.89062 0.76562,-2.73437 0,-2.01563 -0.78125,-2.95313 -0.78125,-0.95312 -1.92187,-0.95312 -1.10938,0 -1.85938,0.90625 -0.75,0.90625 -0.75,2.85937 z" />
  <path
     style="fill:#000000;fill-rule:nonzero;stroke:none"
     inkscape:connector-curvature="0"
     id="path4284"
     d="m 375.72375,62.132805 0,-9.85938 1.5,0 0,1.40625 q 1.09375,-1.625 3.14063,-1.625 0.89062,0 1.64062,0.32813 0.75,0.3125 1.10938,0.84375 0.375,0.51562 0.53125,1.21875 0.0937,0.46875 0.0937,1.625 l 0,6.0625 -1.67188,0 0,-6 q 0,-1.01563 -0.20312,-1.51563 -0.1875,-0.51562 -0.6875,-0.8125 -0.5,-0.29687 -1.17188,-0.29687 -1.0625,0 -1.84375,0.67187 -0.76562,0.67188 -0.76562,2.57813 l 0,5.375 -1.67188,0 z m 16.81323,-1.21875 q -0.9375,0.79687 -1.79687,1.125 -0.85938,0.3125 -1.84375,0.3125 -1.60938,0 -2.48438,-0.78125 -0.875,-0.79688 -0.875,-2.03125 0,-0.73438 0.32813,-1.32813 0.32812,-0.59375 0.85937,-0.95312 0.53125,-0.35938 1.20313,-0.54688 0.5,-0.14062 1.48437,-0.25 2.03125,-0.25 2.98438,-0.57812 0,-0.34375 0,-0.4375 0,-1.01563 -0.46875,-1.4375 -0.64063,-0.5625 -1.90625,-0.5625 -1.17188,0 -1.73438,0.40625 -0.5625,0.40625 -0.82812,1.46875 l -1.64063,-0.23438 q 0.23438,-1.04687 0.73438,-1.6875 0.51562,-0.64062 1.46875,-0.98437 0.96875,-0.35938 2.25,-0.35938 1.26562,0 2.04687,0.29688 0.78125,0.29687 1.15625,0.75 0.375,0.45312 0.51563,1.14062 0.0937,0.42188 0.0937,1.53125 l 0,2.23438 q 0,2.32812 0.0937,2.95312 0.10937,0.60938 0.4375,1.17188 l -1.75,0 q -0.26563,-0.51563 -0.32813,-1.21875 z m -0.14062,-3.71875 q -0.90625,0.35937 -2.73438,0.625 -1.03125,0.14062 -1.45312,0.32812 -0.42188,0.1875 -0.65625,0.54688 -0.23438,0.35937 -0.23438,0.79687 0,0.67188 0.5,1.125 0.51563,0.4375 1.48438,0.4375 0.96875,0 1.71875,-0.42187 0.75,-0.4375 1.10937,-1.15625 0.26563,-0.57813 0.26563,-1.67188 l 0,-0.60937 z m 4.07882,4.9375 0,-9.85938 1.5,0 0,1.39063 q 0.45313,-0.71875 1.21875,-1.15625 0.78125,-0.45313 1.76563,-0.45313 1.09375,0 1.79687,0.45313 0.70313,0.45312 0.98438,1.28125 1.17187,-1.73438 3.04687,-1.73438 1.46875,0 2.25,0.8125 0.79688,0.8125 0.79688,2.5 l 0,6.76563 -1.67188,0 0,-6.20313 q 0,-1 -0.15625,-1.4375 -0.15625,-0.45312 -0.59375,-0.71875 -0.42187,-0.26562 -1,-0.26562 -1.03125,0 -1.71875,0.6875 -0.6875,0.6875 -0.6875,2.21875 l 0,5.71875 -1.67187,0 0,-6.40625 q 0,-1.10938 -0.40625,-1.65625 -0.40625,-0.5625 -1.34375,-0.5625 -0.70313,0 -1.3125,0.375 -0.59375,0.35937 -0.85938,1.07812 -0.26562,0.71875 -0.26562,2.0625 l 0,5.10938 -1.67188,0 z m 22.29081,-3.17188 1.71875,0.21875 q -0.40625,1.5 -1.51563,2.34375 -1.09375,0.82813 -2.8125,0.82813 -2.15625,0 -3.42187,-1.32813 -1.26563,-1.32812 -1.26563,-3.73437 0,-2.48438 1.26563,-3.85938 1.28125,-1.375 3.32812,-1.375 1.98438,0 3.23438,1.34375 1.25,1.34375 1.25,3.79688 0,0.14062 -0.0156,0.4375 l -7.34375,0 q 0.0937,1.625 0.92188,2.48437 0.82812,0.85938 2.0625,0.85938 0.90625,0 1.54687,-0.46875 0.65625,-0.48438 1.04688,-1.54688 z m -5.48438,-2.70312 5.5,0 q -0.10937,-1.23438 -0.625,-1.85938 -0.79687,-0.96875 -2.07812,-0.96875 -1.14063,0 -1.9375,0.78125 -0.78125,0.76563 -0.85938,2.04688 z" />
  <path
     style="fill:#000000;fill-rule:nonzero;stroke:none"
     inkscape:connector-curvature="0"
     id="path4286"
     d="m 565.10128,62.132805 0,-1.25 q -0.9375,1.46875 -2.75,1.46875 -1.17188,0 -2.17188,-0.64063 -0.98437,-0.65625 -1.53125,-1.8125 -0.53125,-1.17187 -0.53125,-2.6875 0,-1.46875 0.48438,-2.67187 0.5,-1.20313 1.46875,-1.84375 0.98437,-0.64063 2.20312,-0.64063 0.89063,0 1.57813,0.375 0.70312,0.375 1.14062,0.98438 l 0,-4.875 1.65625,0 0,13.59375 -1.54687,0 z m -5.28125,-4.92188 q 0,1.89063 0.79687,2.82813 0.8125,0.9375 1.89063,0.9375 1.09375,0 1.85937,-0.89063 0.76563,-0.89062 0.76563,-2.73437 0,-2.01563 -0.78125,-2.95313 -0.78125,-0.95312 -1.92188,-0.95312 -1.10937,0 -1.85937,0.90625 -0.75,0.90625 -0.75,2.85937 z m 16.01636,1.75 1.71875,0.21875 q -0.40625,1.5 -1.51563,2.34375 -1.09375,0.82813 -2.8125,0.82813 -2.15625,0 -3.42187,-1.32813 -1.26563,-1.32812 -1.26563,-3.73437 0,-2.48438 1.26563,-3.85938 1.28125,-1.375 3.32812,-1.375 1.98438,0 3.23438,1.34375 1.25,1.34375 1.25,3.79688 0,0.14062 -0.0156,0.4375 l -7.34375,0 q 0.0937,1.625 0.92188,2.48437 0.82812,0.85938 2.0625,0.85938 0.90625,0 1.54687,-0.46875 0.65625,-0.48438 1.04688,-1.54688 z m -5.48438,-2.70312 5.5,0 q -0.10937,-1.23438 -0.625,-1.85938 -0.79687,-0.96875 -2.07812,-0.96875 -1.14063,0 -1.9375,0.78125 -0.78125,0.76563 -0.85938,2.04688 z m 9.11005,9.65625 0,-13.64063 1.53125,0 0,1.28125 q 0.53125,-0.75 1.20312,-1.125 0.6875,-0.375 1.64063,-0.375 1.26562,0 2.23437,0.65625 0.96875,0.64063 1.45313,1.82813 0.5,1.1875 0.5,2.59375 0,1.51562 -0.54688,2.73437 -0.54687,1.20313 -1.57812,1.84375 -1.03125,0.64063 -2.17188,0.64063 -0.84375,0 -1.51562,-0.34375 -0.65625,-0.35938 -1.07813,-0.89063 l 0,4.79688 -1.67187,0 z m 1.51562,-8.65625 q 0,1.90625 0.76563,2.8125 0.78125,0.90625 1.875,0.90625 1.10937,0 1.89062,-0.9375 0.79688,-0.9375 0.79688,-2.92188 0,-1.875 -0.78125,-2.8125 -0.76563,-0.9375 -1.84375,-0.9375 -1.0625,0 -1.89063,1 -0.8125,1 -0.8125,2.89063 z m 12.51636,3.375 0.23437,1.48437 q -0.70312,0.14063 -1.26562,0.14063 -0.90625,0 -1.40625,-0.28125 -0.5,-0.29688 -0.70313,-0.75 -0.20312,-0.46875 -0.20312,-1.98438 l 0,-5.65625 -1.23438,0 0,-1.3125 1.23438,0 0,-2.4375 1.65625,-1 0,3.4375 1.6875,0 0,1.3125 -1.6875,0 0,5.75 q 0,0.71875 0.0781,0.92188 0.0937,0.20312 0.29688,0.32812 0.20312,0.125 0.57812,0.125 0.26563,0 0.73438,-0.0781 z" />
  <path
     style="fill:#000000;fill-rule:nonzero;stroke:none"
     inkscape:connector-curvature="0"
     id="path4288"
     d="m 203.23687,101.5789 -2.15625,0 0,4.09375 -1.875,0 0,-4.09375 -6.96875,0 0,-2.250005 7.04687,-8.20313 1.79688,0 0,8.890635 2.15625,0 0,1.5625 z m -4.03125,-1.5625 0,-6.562505 -5.64063,6.562505 5.64063,0 z m 15.58984,5.65625 -7.875,0 0,-1.48438 3.03125,0 0,-9.750005 -3.03125,0 0,-1.32812 q 0.60938,0 1.3125,-0.0937 0.70313,-0.10938 1.0625,-0.29688 0.45313,-0.25 0.70313,-0.625 0.26562,-0.375 0.3125,-1.01562 l 1.51562,0 0,13.109375 2.96875,0 0,1.48438 z m 13.51172,-7.281255 q 0,3.921875 -1.21875,5.750005 -1.21875,1.82812 -3.79687,1.82812 -2.625,0 -3.82813,-1.84375 -1.20312,-1.85937 -1.20312,-5.703125 0,-3.89063 1.21875,-5.73438 1.21875,-1.84375 3.8125,-1.84375 2.60937,0 3.8125,1.875 1.20312,1.875 1.20312,5.67188 z m -2.5625,4.437505 q 0.34375,-0.79688 0.46875,-1.85938 0.125,-1.062505 0.125,-2.578125 0,-1.48438 -0.125,-2.57813 -0.125,-1.09375 -0.48437,-1.84375 -0.32813,-0.76562 -0.92188,-1.14062 -0.59375,-0.375 -1.51562,-0.375 -0.92188,0 -1.53125,0.375 -0.59375,0.375 -0.95313,1.15625 -0.32812,0.71875 -0.45312,1.89062 -0.10938,1.15625 -0.10938,2.54688 0,1.51562 0.0937,2.546875 0.10938,1.01563 0.46875,1.82813 0.3125,0.76562 0.90625,1.17187 0.59375,0.39063 1.57813,0.39063 0.90625,0 1.51562,-0.375 0.60938,-0.39063 0.9375,-1.15625 z m 14.54297,2.84375 -1.84375,0 0,-1.14063 q -0.78125,0.6875 -1.64062,1.0625 -0.85938,0.375 -1.875,0.375 -1.95313,0 -3.09375,-1.5 -1.14063,-1.5 -1.14063,-4.17187 0,-1.390635 0.39063,-2.468755 0.39062,-1.07813 1.0625,-1.84375 0.67187,-0.75 1.54687,-1.14063 0.89063,-0.39062 1.84375,-0.39062 0.85938,0 1.51563,0.1875 0.67187,0.1875 1.39062,0.5625 l 0,-4.73438 1.84375,0 0,15.203135 z m -1.84375,-2.6875 0,-6.265635 q -0.73437,-0.32812 -1.32812,-0.45312 -0.57813,-0.125 -1.26563,-0.125 -1.54687,0 -2.40625,1.07812 -0.85937,1.0625 -0.85937,3.046885 0,1.9375 0.65625,2.95312 0.67187,1 2.14062,1 0.78125,0 1.57813,-0.34375 0.79687,-0.34375 1.48437,-0.89062 z m 15.03906,-4.593755 q 0,3.921875 -1.21875,5.750005 -1.21875,1.82812 -3.79687,1.82812 -2.625,0 -3.82813,-1.84375 -1.20312,-1.85937 -1.20312,-5.703125 0,-3.89063 1.21875,-5.73438 1.21875,-1.84375 3.8125,-1.84375 2.60937,0 3.8125,1.875 1.20312,1.875 1.20312,5.67188 z m -2.5625,4.437505 q 0.34375,-0.79688 0.46875,-1.85938 0.125,-1.062505 0.125,-2.578125 0,-1.48438 -0.125,-2.57813 -0.125,-1.09375 -0.48437,-1.84375 -0.32813,-0.76562 -0.92188,-1.14062 -0.59375,-0.375 -1.51562,-0.375 -0.92188,0 -1.53125,0.375 -0.59375,0.375 -0.95313,1.15625 -0.32812,0.71875 -0.45312,1.89062 -0.10938,1.15625 -0.10938,2.54688 0,1.51562 0.0937,2.546875 0.10938,1.01563 0.46875,1.82813 0.3125,0.76562 0.90625,1.17187 0.59375,0.39063 1.57813,0.39063 0.90625,0 1.51562,-0.375 0.60938,-0.39063 0.9375,-1.15625 z m 13.76172,2.15625 q -0.92187,0.4375 -1.75,0.6875 -0.8125,0.25 -1.75,0.25 -1.17187,0 -2.17187,-0.34375 -0.98438,-0.35938 -1.6875,-1.0625 -0.70313,-0.70313 -1.09375,-1.76563 -0.39063,-1.07812 -0.39063,-2.51562 0,-2.671885 1.46875,-4.187505 1.46875,-1.53125 3.875,-1.53125 0.9375,0 1.84375,0.26562 0.90625,0.25 1.65625,0.64063 l 0,2.03125 -0.0937,0 q -0.84375,-0.65625 -1.73437,-1 -0.89063,-0.35938 -1.75,-0.35938 -1.5625,0 -2.46875,1.0625 -0.89063,1.04688 -0.89063,3.078135 0,1.96875 0.875,3.03125 0.89063,1.0625 2.48438,1.0625 0.5625,0 1.14062,-0.14063 0.57813,-0.15625 1.03125,-0.39062 0.40625,-0.20313 0.75,-0.4375 0.35938,-0.23438 0.5625,-0.39063 l 0.0937,0 0,2.01563 z m 12.07618,-3.35938 q 0,1.875 -1.48438,3.125 -1.46875,1.25 -3.6875,1.25 -2.35937,0 -3.76562,-1.21875 -1.40625,-1.21875 -1.40625,-3.125 0,-1.20312 0.70312,-2.187505 0.70313,-0.98437 1.98438,-1.5625 l 0,-0.0625 q -1.17188,-0.625 -1.73438,-1.35937 -0.5625,-0.75 -0.5625,-1.85938 0,-1.64062 1.34375,-2.73437 1.35938,-1.09375 3.4375,-1.09375 2.17188,0 3.46875,1.04687 1.3125,1.04688 1.3125,2.65625 0,0.98438 -0.625,1.9375 -0.60937,0.95313 -1.79687,1.48438 l 0,0.0625 q 1.35937,0.59375 2.07812,1.45312 0.73438,0.859385 0.73438,2.187505 z m -2.32813,-7.109375 q 0,-1.04688 -0.8125,-1.65625 -0.79687,-0.625 -2.04687,-0.625 -1.21875,0 -2.01563,0.59375 -0.78125,0.57812 -0.78125,1.57812 0,0.70313 0.39063,1.21875 0.40625,0.5 1.20312,0.90625 0.35938,0.17188 1.03125,0.45313 0.6875,0.28125 1.32813,0.46875 0.96875,-0.64063 1.32812,-1.32813 0.375,-0.70312 0.375,-1.60937 z m 0.3125,7.281255 q 0,-0.89063 -0.40625,-1.42188 -0.39062,-0.546875 -1.54687,-1.093755 -0.45313,-0.21875 -1,-0.40625 -0.54688,-0.1875 -1.45313,-0.51562 -0.875,0.46875 -1.40625,1.29687 -0.53125,0.812505 -0.53125,1.859385 0,1.3125 0.90625,2.17187 0.90625,0.85938 2.29688,0.85938 1.42187,0 2.28125,-0.73438 0.85937,-0.73437 0.85937,-2.01562 z m 13.07422,3.1875 q -0.92188,0.4375 -1.75,0.6875 -0.8125,0.25 -1.75,0.25 -1.17188,0 -2.17188,-0.34375 -0.98437,-0.35938 -1.6875,-1.0625 -0.70312,-0.70313 -1.09375,-1.76563 -0.39062,-1.07812 -0.39062,-2.51562 0,-2.671885 1.46875,-4.187505 1.46875,-1.53125 3.875,-1.53125 0.9375,0 1.84375,0.26562 0.90625,0.25 1.65625,0.64063 l 0,2.03125 -0.0937,0 q -0.84375,-0.65625 -1.73438,-1 -0.89062,-0.35938 -1.75,-0.35938 -1.5625,0 -2.46875,1.0625 -0.89062,1.04688 -0.89062,3.078135 0,1.96875 0.875,3.03125 0.89062,1.0625 2.48437,1.0625 0.5625,0 1.14063,-0.14063 0.57812,-0.15625 1.03125,-0.39062 0.40625,-0.20313 0.75,-0.4375 0.35937,-0.23438 0.5625,-0.39063 l 0.0937,0 0,2.01563 z m 8.13868,-4.79688 -6.09375,0 0,-1.765625 6.09375,0 0,1.765625 z" />
  <path
     style="fill:#000000;fill-rule:nonzero;stroke:none"
     inkscape:connector-curvature="0"
     id="path4290"
     d="m 203.01812,125.62576 q 0,1.875 -1.48438,3.125 -1.46875,1.25 -3.6875,1.25 -2.35937,0 -3.76562,-1.21875 -1.40625,-1.21875 -1.40625,-3.125 0,-1.20313 0.70312,-2.1875 0.70313,-0.98438 1.98438,-1.5625 l 0,-0.0625 q -1.17188,-0.625 -1.73438,-1.35938 -0.5625,-0.75 -0.5625,-1.85937 0,-1.64063 1.34375,-2.73438 1.35938,-1.09375 3.4375,-1.09375 2.17188,0 3.46875,1.04688 1.3125,1.04687 1.3125,2.65625 0,0.98437 -0.625,1.9375 -0.60937,0.95312 -1.79687,1.48437 l 0,0.0625 q 1.35937,0.59375 2.07812,1.45313 0.73438,0.85937 0.73438,2.1875 z m -2.32813,-7.10938 q 0,-1.04687 -0.8125,-1.65625 -0.79687,-0.625 -2.04687,-0.625 -1.21875,0 -2.01563,0.59375 -0.78125,0.57813 -0.78125,1.57813 0,0.70312 0.39063,1.21875 0.40625,0.5 1.20312,0.90625 0.35938,0.17187 1.03125,0.45312 0.6875,0.28125 1.32813,0.46875 0.96875,-0.64062 1.32812,-1.32812 0.375,-0.70313 0.375,-1.60938 z m 0.3125,7.28125 q 0,-0.89062 -0.40625,-1.42187 -0.39062,-0.54688 -1.54687,-1.09375 -0.45313,-0.21875 -1,-0.40625 -0.54688,-0.1875 -1.45313,-0.51563 -0.875,0.46875 -1.40625,1.29688 -0.53125,0.8125 -0.53125,1.85937 0,1.3125 0.90625,2.17188 0.90625,0.85937 2.29688,0.85937 1.42187,0 2.28125,-0.73437 0.85937,-0.73438 0.85937,-2.01563 z m 13.33985,-3.125 q 0.46875,0.42188 0.76562,1.0625 0.3125,0.625 0.3125,1.625 0,1 -0.375,1.82813 -0.35937,0.82812 -1.01562,1.45312 -0.71875,0.67188 -1.71875,1 -0.98438,0.32813 -2.17188,0.32813 -1.20312,0 -2.375,-0.29688 -1.17187,-0.28125 -1.9375,-0.60937 l 0,-2.04688 0.15625,0 q 0.82813,0.54688 1.95313,0.90625 1.125,0.35938 2.17187,0.35938 0.60938,0 1.29688,-0.20313 0.70312,-0.20312 1.125,-0.60937 0.45312,-0.42188 0.67187,-0.9375 0.21875,-0.51563 0.21875,-1.3125 0,-0.78125 -0.25,-1.29688 -0.25,-0.51562 -0.6875,-0.79687 -0.4375,-0.3125 -1.0625,-0.42188 -0.625,-0.10937 -1.34375,-0.10937 l -0.89062,0 0,-1.625 0.6875,0 q 1.48437,0 2.35937,-0.60938 0.89063,-0.625 0.89063,-1.82812 0,-0.51563 -0.21875,-0.90625 -0.21875,-0.40625 -0.625,-0.65625 -0.42188,-0.25 -0.90625,-0.34375 -0.46875,-0.10938 -1.07813,-0.10938 -0.92187,0 -1.96875,0.34375 -1.04687,0.32813 -1.96875,0.92188 l -0.10937,0 0,-2.03125 q 0.70312,-0.34375 1.85937,-0.625 1.15625,-0.29688 2.23438,-0.29688 1.0625,0 1.875,0.20313 0.8125,0.1875 1.46875,0.60937 0.70312,0.46875 1.0625,1.14063 0.35937,0.65625 0.35937,1.54687 0,1.21875 -0.85937,2.125 -0.84375,0.89063 -2.01563,1.125 l 0,0.14063 q 0.46875,0.0781 1.07813,0.32812 0.60937,0.25 1.03125,0.625 z m 13.23047,7 -1.84375,0 0,-1.14062 q -0.78125,0.6875 -1.64063,1.0625 -0.85937,0.375 -1.875,0.375 -1.95312,0 -3.09375,-1.5 -1.14062,-1.5 -1.14062,-4.17188 0,-1.39062 0.39062,-2.46875 0.39063,-1.07812 1.0625,-1.84375 0.67188,-0.75 1.54688,-1.14062 0.89062,-0.39063 1.84375,-0.39063 0.85937,0 1.51562,0.1875 0.67188,0.1875 1.39063,0.5625 l 0,-4.73437 1.84375,0 0,15.20312 z m -1.84375,-2.6875 0,-6.26562 q -0.73438,-0.32813 -1.32813,-0.45313 -0.57812,-0.125 -1.26562,-0.125 -1.54688,0 -2.40625,1.07813 -0.85938,1.0625 -0.85938,3.04687 0,1.9375 0.65625,2.95313 0.67188,1 2.14063,1 0.78125,0 1.57812,-0.34375 0.79688,-0.34375 1.48438,-0.89063 z m 8.46094,2.6875 -2.34375,0 0,-2.78125 2.34375,0 0,2.78125 z m 7.27539,0 -2.34375,0 0,-2.78125 2.34375,0 0,2.78125 z m 7.27539,0 -2.34375,0 0,-2.78125 2.34375,0 0,2.78125 z" />
  <path
     style="fill:#000000;fill-rule:nonzero;stroke:none"
     inkscape:connector-curvature="0"
     id="path4292"
     d="m 379.77063,104.39265 0,-5.765635 -5.23437,-7.82812 2.1875,0 2.67187,4.09375 q 0.75,1.15625 1.39063,2.29687 0.60937,-1.0625 1.48437,-2.40625 l 2.625,-3.98437 2.10938,0 -5.4375,7.82812 0,5.765635 -1.79688,0 z m 14.84982,0 0,-1.45313 q -1.14062,1.67188 -3.125,1.67188 -0.85937,0 -1.625,-0.32813 -0.75,-0.34375 -1.125,-0.84375 -0.35937,-0.5 -0.51562,-1.23437 -0.0937,-0.5 -0.0937,-1.5625 l 0,-6.109385 1.67187,0 0,5.468755 q 0,1.3125 0.0937,1.76563 0.15625,0.65625 0.67188,1.03125 0.51562,0.375 1.26562,0.375 0.75,0 1.40625,-0.375 0.65625,-0.39063 0.92188,-1.04688 0.28125,-0.67187 0.28125,-1.937505 l 0,-5.28125 1.67187,0 0,9.859385 -1.5,0 z m 3.93824,0 0,-13.593755 1.67187,0 0,7.75 3.95313,-4.01563 2.15625,0 -3.76563,3.65625 4.14063,6.203135 -2.0625,0 -3.25,-5.031255 -1.17188,1.125005 0,3.90625 -1.67187,0 z m 9.32812,-11.687505 0,-1.90625 1.67188,0 0,1.90625 -1.67188,0 z m 0,11.687505 0,-9.859385 1.67188,0 0,9.859385 -1.67188,0 z m 9.46875,0 0,-13.593755 2.71875,0 3.21875,9.625005 q 0.4375,1.34375 0.64063,2.01562 0.23437,-0.75 0.73437,-2.1875 l 3.25,-9.453125 2.42188,0 0,13.593755 -1.73438,0 0,-11.390635 -3.95312,11.390635 -1.625,0 -3.9375,-11.578135 0,11.578135 -1.73438,0 z m 14.75955,-4.921885 q 0,-2.73437 1.53125,-4.0625 1.26563,-1.09375 3.09375,-1.09375 2.03125,0 3.3125,1.34375 1.29688,1.32813 1.29688,3.67188 0,1.906255 -0.57813,3.000005 -0.5625,1.07812 -1.65625,1.6875 -1.07812,0.59375 -2.375,0.59375 -2.0625,0 -3.34375,-1.32813 -1.28125,-1.32812 -1.28125,-3.812505 z m 1.71875,0 q 0,1.890635 0.82813,2.828135 0.82812,0.9375 2.07812,0.9375 1.25,0 2.0625,-0.9375 0.82813,-0.95313 0.82813,-2.890635 0,-1.82812 -0.82813,-2.76562 -0.82812,-0.9375 -2.0625,-0.9375 -1.25,0 -2.07812,0.9375 -0.82813,0.9375 -0.82813,2.82812 z m 9.26633,4.921885 0,-9.859385 1.5,0 0,1.5 q 0.57812,-1.04687 1.0625,-1.375 0.48437,-0.34375 1.07812,-0.34375 0.84375,0 1.71875,0.54688 l -0.57812,1.54687 q -0.60938,-0.35937 -1.23438,-0.35937 -0.54687,0 -0.98437,0.32812 -0.42188,0.32813 -0.60938,0.90625 -0.28125,0.89063 -0.28125,1.95313 l 0,5.156255 -1.67187,0 z m 6.24393,-11.687505 0,-1.90625 1.67187,0 0,1.90625 -1.67187,0 z m 0,11.687505 0,-9.859385 1.67187,0 0,9.859385 -1.67187,0 z m 3.45733,-2.9375 1.65625,-0.26563 q 0.14063,1 0.76563,1.53125 0.64062,0.51563 1.78125,0.51563 1.15625,0 1.70312,-0.46875 0.5625,-0.46875 0.5625,-1.09375 0,-0.5625 -0.48437,-0.89063 -0.34375,-0.21875 -1.70313,-0.5625 -1.84375,-0.468755 -2.5625,-0.796875 -0.70312,-0.34375 -1.07812,-0.9375 -0.35938,-0.60938 -0.35938,-1.32813 0,-0.65625 0.29688,-1.21875 0.3125,-0.5625 0.82812,-0.9375 0.39063,-0.28125 1.0625,-0.48437 0.67188,-0.20313 1.4375,-0.20313 1.17188,0 2.04688,0.34375 0.875,0.32813 1.28125,0.90625 0.42187,0.5625 0.57812,1.51563 l -1.625,0.21875 q -0.10937,-0.75 -0.65625,-1.17188 -0.53125,-0.4375 -1.5,-0.4375 -1.15625,0 -1.64062,0.39063 -0.48438,0.375 -0.48438,0.875 0,0.32812 0.20313,0.59375 0.20312,0.26562 0.64062,0.4375 0.25,0.0937 1.46875,0.4375 1.76563,0.46875 2.46875,0.76562 0.70313,0.29688 1.09375,0.875005 0.40625,0.57813 0.40625,1.4375 0,0.82813 -0.48437,1.57813 -0.48438,0.73437 -1.40625,1.14062 -0.92188,0.39063 -2.07813,0.39063 -1.92187,0 -2.9375,-0.79688 -1,-0.79687 -1.28125,-2.35937 z m 10,2.9375 0,-13.593755 1.67188,0 0,4.875 q 1.17187,-1.35938 2.95312,-1.35938 1.09375,0 1.89063,0.4375 0.8125,0.42188 1.15625,1.1875 0.35937,0.76563 0.35937,2.20313 l 0,6.250005 -1.67187,0 0,-6.250005 q 0,-1.25 -0.54688,-1.8125 -0.54687,-0.57813 -1.53125,-0.57813 -0.75,0 -1.40625,0.39063 -0.64062,0.375 -0.92187,1.04687 -0.28125,0.65625 -0.28125,1.8125 l 0,5.390635 -1.67188,0 z m 10.39133,-11.687505 0,-1.90625 1.67187,0 0,1.90625 -1.67187,0 z m 0,11.687505 0,-9.859385 1.67187,0 0,9.859385 -1.67187,0 z m 7.78546,-1.5 0.23438,1.48437 q -0.70313,0.14063 -1.26563,0.14063 -0.90625,0 -1.40625,-0.28125 -0.5,-0.29688 -0.70312,-0.75 -0.20313,-0.46875 -0.20313,-1.98438 l 0,-5.656255 -1.23437,0 0,-1.3125 1.23437,0 0,-2.4375 1.65625,-1 0,3.4375 1.6875,0 0,1.3125 -1.6875,0 0,5.750005 q 0,0.71875 0.0781,0.92188 0.0937,0.20312 0.29687,0.32812 0.20313,0.125 0.57813,0.125 0.26562,0 0.73437,-0.0781 z m 7.96454,0.28125 q -0.9375,0.79687 -1.79688,1.125 -0.85937,0.3125 -1.84375,0.3125 -1.60937,0 -2.48437,-0.78125 -0.875,-0.79688 -0.875,-2.03125 0,-0.73438 0.32812,-1.32813 0.32813,-0.593755 0.85938,-0.953125 0.53125,-0.35938 1.20312,-0.54688 0.5,-0.14062 1.48438,-0.25 2.03125,-0.25 2.98437,-0.57812 0,-0.34375 0,-0.4375 0,-1.01563 -0.46875,-1.4375 -0.64062,-0.5625 -1.90625,-0.5625 -1.17187,0 -1.73437,0.40625 -0.5625,0.40625 -0.82813,1.46875 l -1.64062,-0.23438 q 0.23437,-1.04687 0.73437,-1.6875 0.51563,-0.64062 1.46875,-0.98437 0.96875,-0.35938 2.25,-0.35938 1.26563,0 2.04688,0.29688 0.78125,0.29687 1.15625,0.75 0.375,0.45312 0.51562,1.14062 0.0937,0.42188 0.0937,1.53125 l 0,2.234385 q 0,2.32812 0.0937,2.95312 0.10938,0.60938 0.4375,1.17188 l -1.75,0 q -0.26562,-0.51563 -0.32812,-1.21875 z m -0.14063,-3.718755 q -0.90625,0.35937 -2.73437,0.625005 -1.03125,0.14062 -1.45313,0.32812 -0.42187,0.1875 -0.65625,0.54688 -0.23437,0.35937 -0.23437,0.79687 0,0.67188 0.5,1.125 0.51562,0.4375 1.48437,0.4375 0.96875,0 1.71875,-0.42187 0.75,-0.4375 1.10938,-1.15625 0.26562,-0.57813 0.26562,-1.67188 l 0,-0.609375 z" />
  <path
     style="fill:#000000;fill-rule:nonzero;stroke:none"
     inkscape:connector-curvature="0"
     id="path4294"
     d="m 558.96063,104.39265 0,-13.593755 9.84375,0 0,1.59375 -8.04688,0 0,4.17187 7.53125,0 0,1.59375 -7.53125,0 0,4.625005 8.35938,0 0,1.60938 -10.15625,0 z m 12.19354,0 0,-9.859385 1.5,0 0,1.40625 q 1.09375,-1.625 3.14063,-1.625 0.89062,0 1.64062,0.32813 0.75,0.3125 1.10938,0.84375 0.375,0.51562 0.53125,1.21875 0.0937,0.46875 0.0937,1.625 l 0,6.062505 -1.67188,0 0,-6.000005 q 0,-1.01563 -0.20312,-1.51563 -0.1875,-0.51562 -0.6875,-0.8125 -0.5,-0.29687 -1.17188,-0.29687 -1.0625,0 -1.84375,0.67187 -0.76562,0.67188 -0.76562,2.57813 l 0,5.375005 -1.67188,0 z m 10.07886,0.8125 1.60937,0.25 q 0.10938,0.75 0.57813,1.09375 0.60937,0.45312 1.6875,0.45312 1.17187,0 1.79687,-0.46875 0.625,-0.45312 0.85938,-1.28125 0.125,-0.51562 0.10937,-2.15625 -1.09375,1.29688 -2.71875,1.29688 -2.03125,0 -3.15625,-1.46875 -1.10937,-1.46875 -1.10937,-3.515635 0,-1.40625 0.51562,-2.59375 0.51563,-1.20312 1.48438,-1.84375 0.96875,-0.65625 2.26562,-0.65625 1.75,0 2.875,1.40625 l 0,-1.1875 1.54688,0 0,8.515635 q 0,2.3125 -0.46875,3.26562 -0.46875,0.96875 -1.48438,1.51563 -1.01562,0.56249 -2.5,0.56249 -1.76562,0 -2.85937,-0.79687 -1.07813,-0.79687 -1.03125,-2.39062 z m 1.375,-5.921885 q 0,1.953135 0.76562,2.843755 0.78125,0.89063 1.9375,0.89063 1.14063,0 1.92188,-0.89063 0.78125,-0.89062 0.78125,-2.781255 0,-1.8125 -0.8125,-2.71875 -0.79688,-0.92187 -1.92188,-0.92187 -1.10937,0 -1.89062,0.90625 -0.78125,0.89062 -0.78125,2.67187 z m 9.31323,-6.57812 0,-1.90625 1.67188,0 0,1.90625 -1.67188,0 z m 0,11.687505 0,-9.859385 1.67188,0 0,9.859385 -1.67188,0 z m 4.12921,0 0,-9.859385 1.5,0 0,1.40625 q 1.09375,-1.625 3.14063,-1.625 0.89062,0 1.64062,0.32813 0.75,0.3125 1.10938,0.84375 0.375,0.51562 0.53125,1.21875 0.0937,0.46875 0.0937,1.625 l 0,6.062505 -1.67188,0 0,-6.000005 q 0,-1.01563 -0.20312,-1.51563 -0.1875,-0.51562 -0.6875,-0.8125 -0.5,-0.29687 -1.17188,-0.29687 -1.0625,0 -1.84375,0.67187 -0.76562,0.67188 -0.76562,2.57813 l 0,5.375005 -1.67188,0 z m 17.12567,-3.17188 1.71875,0.21875 q -0.40625,1.5 -1.51562,2.34375 -1.09375,0.82813 -2.8125,0.82813 -2.15625,0 -3.42188,-1.32813 -1.26562,-1.32812 -1.26562,-3.734375 0,-2.48438 1.26562,-3.85938 1.28125,-1.375 3.32813,-1.375 1.98437,0 3.23437,1.34375 1.25,1.34375 1.25,3.79688 0,0.14062 -0.0156,0.4375 l -7.34375,0 q 0.0937,1.625005 0.92187,2.484375 0.82813,0.85938 2.0625,0.85938 0.90625,0 1.54688,-0.46875 0.65625,-0.48438 1.04687,-1.54688 z m -5.48437,-2.703125 5.5,0 q -0.10938,-1.23438 -0.625,-1.85938 -0.79688,-0.96875 -2.07813,-0.96875 -1.14062,0 -1.9375,0.78125 -0.78125,0.76563 -0.85937,2.04688 z m 15.86011,2.703125 1.71875,0.21875 q -0.40625,1.5 -1.51563,2.34375 -1.09375,0.82813 -2.8125,0.82813 -2.15625,0 -3.42187,-1.32813 -1.26563,-1.32812 -1.26563,-3.734375 0,-2.48438 1.26563,-3.85938 1.28125,-1.375 3.32812,-1.375 1.98438,0 3.23438,1.34375 1.25,1.34375 1.25,3.79688 0,0.14062 -0.0156,0.4375 l -7.34375,0 q 0.0937,1.625005 0.92188,2.484375 0.82812,0.85938 2.0625,0.85938 0.90625,0 1.54687,-0.46875 0.65625,-0.48438 1.04688,-1.54688 z m -5.48438,-2.703125 5.5,0 q -0.10937,-1.23438 -0.625,-1.85938 -0.79687,-0.96875 -2.07812,-0.96875 -1.14063,0 -1.9375,0.78125 -0.78125,0.76563 -0.85938,2.04688 z m 9.09448,5.875005 0,-9.859385 1.5,0 0,1.5 q 0.57813,-1.04687 1.0625,-1.375 0.48438,-0.34375 1.07813,-0.34375 0.84375,0 1.71875,0.54688 l -0.57813,1.54687 q -0.60937,-0.35937 -1.23437,-0.35937 -0.54688,0 -0.98438,0.32812 -0.42187,0.32813 -0.60937,0.90625 -0.28125,0.89063 -0.28125,1.95313 l 0,5.156255 -1.67188,0 z m 6.2439,-11.687505 0,-1.90625 1.67187,0 0,1.90625 -1.67187,0 z m 0,11.687505 0,-9.859385 1.67187,0 0,9.859385 -1.67187,0 z m 4.12921,0 0,-9.859385 1.5,0 0,1.40625 q 1.09375,-1.625 3.14063,-1.625 0.89062,0 1.64062,0.32813 0.75,0.3125 1.10938,0.84375 0.375,0.51562 0.53125,1.21875 0.0937,0.46875 0.0937,1.625 l 0,6.062505 -1.67188,0 0,-6.000005 q 0,-1.01563 -0.20312,-1.51563 -0.1875,-0.51562 -0.6875,-0.8125 -0.5,-0.29687 -1.17188,-0.29687 -1.0625,0 -1.84375,0.67187 -0.76562,0.67188 -0.76562,2.57813 l 0,5.375005 -1.67188,0 z m 10.07886,0.8125 1.60937,0.25 q 0.10938,0.75 0.57813,1.09375 0.60937,0.45312 1.6875,0.45312 1.17187,0 1.79687,-0.46875 0.625,-0.45312 0.85938,-1.28125 0.125,-0.51562 0.10937,-2.15625 -1.09375,1.29688 -2.71875,1.29688 -2.03125,0 -3.15625,-1.46875 -1.10937,-1.46875 -1.10937,-3.515635 0,-1.40625 0.51562,-2.59375 0.51563,-1.20312 1.48438,-1.84375 0.96875,-0.65625 2.26562,-0.65625 1.75,0 2.875,1.40625 l 0,-1.1875 1.54688,0 0,8.515635 q 0,2.3125 -0.46875,3.26562 -0.46875,0.96875 -1.48438,1.51563 -1.01562,0.56249 -2.5,0.56249 -1.76562,0 -2.85937,-0.79687 -1.07813,-0.79687 -1.03125,-2.39062 z m 1.375,-5.921885 q 0,1.953135 0.76562,2.843755 0.78125,0.89063 1.9375,0.89063 1.14063,0 1.92188,-0.89063 0.78125,-0.89062 0.78125,-2.781255 0,-1.8125 -0.8125,-2.71875 -0.79688,-0.92187 -1.92188,-0.92187 -1.10937,0 -1.89062,0.90625 -0.78125,0.89062 -0.78125,2.67187 z" />
  <path
     style="fill:#000000;fill-rule:nonzero;stroke:none"
     inkscape:connector-curvature="0"
     id="path4296"
     d="m 196.29937,172.86949 -2.34375,0 0,-2.78125 2.34375,0 0,2.78125 z m 7.27539,0 -2.34375,0 0,-2.78125 2.34375,0 0,2.78125 z m 7.27539,0 -2.34375,0 0,-2.78125 2.34375,0 0,2.78125 z" />
  <path
     style="fill:#000000;fill-rule:nonzero;stroke:none"
     inkscape:connector-curvature="0"
     id="path4298"
     d="m 376.1925,171.5895 0,-1.90625 1.90625,0 0,1.90625 -1.90625,0 z m 5.18332,0 0,-1.90625 1.90625,0 0,1.90625 -1.90625,0 z m 5.18329,0 0,-1.90625 1.90625,0 0,1.90625 -1.90625,0 z" />
  <path
     style="fill:#000000;fill-rule:nonzero;stroke:none"
     inkscape:connector-curvature="0"
     id="path4300"
     d="m 559.17938,171.5895 0,-1.90625 1.90625,0 0,1.90625 -1.90625,0 z m 5.18329,0 0,-1.90625 1.90625,0 0,1.90625 -1.90625,0 z m 5.18329,0 0,-1.90625 1.90625,0 0,1.90625 -1.90625,0 z" />
  <path
     style="fill:#000000;fill-opacity:0;fill-rule:nonzero;stroke:none"
     inkscape:connector-curvature="0"
     id="path4310"
     d="m -1.1133698e-5,127.16817 950.519721133698,0" />
  <path
     style="fill:none;stroke:#000000;stroke-width:2;stroke-linecap:butt;stroke-linejoin:round"
     inkscape:connector-curvature="0"
     id="path4312"
     d="m 1.9999889,200.16817 950.5197211,0" />
  <path
     style="fill:#000000;fill-opacity:0;fill-rule:nonzero;stroke:none"
     inkscape:connector-curvature="0"
     id="path4314"
     d="m 282.63909,200.86767 384.00001,0 0,48.00001 -384.00001,0 z" />
  <path
     style="fill:#000000;fill-opacity:0;fill-rule:nonzero;stroke:none"
     inkscape:connector-curvature="0"
     id="path4318"
     d="M 279.34514,119.48314 172.19553,324.6485" />
  <text
     xml:space="preserve"
     style="font-size:20px;font-style:normal;font-variant:normal;font-weight:normal;font-stretch:normal;text-align:start;line-height:125%;letter-spacing:0px;word-spacing:0px;writing-mode:lr-tb;text-anchor:start;fill:#000000;fill-opacity:1;stroke:none;font-family:Droid Sans;-inkscape-font-specification:Droid Sans"
     x="194.46588"
     y="23.556641"
     id="text4457"
     sodipodi:linespacing="125%"><tspan
       sodipodi:role="line"
       id="tspan4459"
       x="194.46588"
       y="23.556641">カラム(Column)</tspan></text>
  <text
     xml:space="preserve"
     style="font-size:20px;font-style:normal;font-variant:normal;font-weight:normal;font-stretch:normal;text-align:start;line-height:125%;letter-spacing:0px;word-spacing:0px;writing-mode:lr-tb;text-anchor:start;fill:#000000;fill-opacity:1;stroke:none;font-family:Droid Sans;-inkscape-font-specification:Droid Sans"
     x="52.465855"
     y="120.22333"
     id="text4461"
     sodipodi:linespacing="125%"><tspan
       sodipodi:role="line"
       id="tspan4463"
       x="52.465855"
       y="120.22333">ロウ(Row)</tspan></text>
  <text
     xml:space="preserve"
     style="font-size:20px;font-style:normal;font-variant:normal;font-weight:normal;font-stretch:normal;text-align:start;line-height:125%;letter-spacing:0px;word-spacing:0px;writing-mode:lr-tb;text-anchor:start;fill:#000000;fill-opacity:1;stroke:none;font-family:Droid Sans;-inkscape-font-specification:Droid Sans"
     x="328.46585"
     y="242.22333"
     id="text4473"
     sodipodi:linespacing="125%"><tspan
       sodipodi:role="line"
       id="tspan4475"
       x="328.46585"
       y="242.22333">CQL3 スキーマメタデータ</tspan></text>
  <rect
     style="fill:none;stroke:#ff7f2a;stroke-width:3.37606764;stroke-linecap:butt;stroke-linejoin:miter;stroke-miterlimit:4;stroke-dasharray:none;stroke-dashoffset:0"
     id="rect7612"
     width="169.62628"
     height="47.283901"
     x="106.51134"
     y="355.01819" />
  <g
     style="fill:none;stroke:none"
     id="g8130"
     transform="matrix(0.57622343,0,0,0.57622343,-8.0729611,242.01611)">
    <rect
       y="197.3539"
       x="506.34338"
       height="81.880623"
       width="284.39615"
       id="rect8124"
       style="fill:none;stroke:#808080;stroke-width:6.02813196;stroke-linecap:butt;stroke-linejoin:miter;stroke-miterlimit:4;stroke-dasharray:none;stroke-dashoffset:0" />
    <rect
       style="fill:#ffeeaa;stroke:#808080;stroke-width:6.02813196;stroke-linecap:butt;stroke-linejoin:miter;stroke-miterlimit:4;stroke-dasharray:none;stroke-dashoffset:0"
       id="rect8128"
       width="284.39615"
       height="81.880623"
       x="506.34338"
       y="115.3539" />
  </g>
  <g
     style="fill:none;stroke:none"
     id="g8134"
     transform="matrix(0.57622343,0,0,0.57622343,167.64163,241.34944)">
    <rect
       style="fill:none;stroke:#808080;stroke-width:6.02813196;stroke-linecap:butt;stroke-linejoin:miter;stroke-miterlimit:4;stroke-dasharray:none;stroke-dashoffset:0"
       id="rect8136"
       width="284.39615"
       height="81.880623"
       x="506.34338"
       y="197.3539" />
    <rect
       y="115.3539"
       x="506.34338"
       height="81.880623"
       width="284.39615"
       id="rect8138"
       style="fill:#ffeeaa;stroke:#808080;stroke-width:6.02813196;stroke-linecap:butt;stroke-linejoin:miter;stroke-miterlimit:4;stroke-dasharray:none;stroke-dashoffset:0" />
  </g>
  <text
     xml:space="preserve"
     style="font-size:20px;font-style:normal;font-variant:normal;font-weight:normal;font-stretch:normal;text-align:center;line-height:125%;letter-spacing:0px;word-spacing:0px;writing-mode:lr-tb;text-anchor:middle;fill:#000000;fill-opacity:1;stroke:none;font-family:Droid Sans;-inkscape-font-specification:Droid Sans"
     x="160.37082"
     y="336.36365"
     id="text8352"
     sodipodi:linespacing="125%"><tspan
       sodipodi:role="line"
       id="tspan8354"
       x="160.37082"
       y="336.36365">パーティション</tspan></text>
  <text
     xml:space="preserve"
     style="font-size:20px;font-style:normal;font-variant:normal;font-weight:normal;font-stretch:normal;text-align:center;line-height:125%;letter-spacing:0px;word-spacing:0px;writing-mode:lr-tb;text-anchor:middle;fill:#000000;fill-opacity:1;stroke:none;font-family:Droid Sans;-inkscape-font-specification:Droid Sans"
     x="332.61496"
     y="290.99957"
     id="text8918"
     sodipodi:linespacing="125%"><tspan
       sodipodi:role="line"
       id="tspan8920"
       x="332.61496"
       y="290.99957"
       style="font-size:20px;font-style:normal;font-variant:normal;font-weight:normal;font-stretch:normal;text-align:center;line-height:125%;writing-mode:lr-tb;text-anchor:middle;font-family:Droid Sans;-inkscape-font-specification:Droid Sans">セル(Cell)</tspan></text>
  <rect
     style="fill:none;stroke:#808080;stroke-width:1.95434046;stroke-linecap:butt;stroke-linejoin:miter;stroke-miterlimit:4;stroke-dasharray:1.95434058, 3.90868117;stroke-dashoffset:0"
     id="rect7614"
     width="727.66809"
     height="61.469704"
     x="92.954666"
     y="347.96448" />
  <text
     xml:space="preserve"
     style="font-size:18px;font-style:normal;font-variant:normal;font-weight:normal;font-stretch:normal;text-align:start;line-height:125%;letter-spacing:0px;word-spacing:0px;writing-mode:lr-tb;text-anchor:start;fill:#000000;fill-opacity:1;stroke:none;font-family:Droid Sans;-inkscape-font-specification:Droid Sans"
     x="297.79922"
     y="386.22327"
     id="text4489"
     sodipodi:linespacing="125%"><tspan
       sodipodi:role="line"
       id="tspan4491"
       x="297.79922"
       y="386.22327">Yuki Morishita</tspan></text>
  <text
     xml:space="preserve"
     style="font-size:18px;font-style:normal;font-variant:normal;font-weight:normal;font-stretch:normal;text-align:start;line-height:125%;letter-spacing:0px;word-spacing:0px;writing-mode:lr-tb;text-anchor:start;fill:#000000;fill-opacity:1;stroke:none;font-family:Droid Sans;-inkscape-font-specification:Droid Sans"
     x="299.13251"
     y="336.88995"
     id="text4485"
     sodipodi:linespacing="125%"><tspan
       sodipodi:role="line"
       id="tspan4487"
       x="299.13251"
       y="336.88995">name</tspan></text>
  <text
     xml:space="preserve"
     style="font-size:18px;font-style:normal;font-variant:normal;font-weight:normal;font-stretch:normal;text-align:start;line-height:125%;letter-spacing:0px;word-spacing:0px;writing-mode:lr-tb;text-anchor:start;fill:#000000;fill-opacity:1;stroke:none;font-family:Droid Sans;-inkscape-font-specification:Droid Sans"
     x="473.79919"
     y="337.55658"
     id="text4514"
     sodipodi:linespacing="125%"><tspan
       sodipodi:role="line"
       id="tspan4516"
       x="473.79919"
       y="337.55658">dept</tspan></text>
  <text
     xml:space="preserve"
     style="font-size:18px;font-style:normal;font-variant:normal;font-weight:normal;font-stretch:normal;text-align:start;line-height:125%;letter-spacing:0px;word-spacing:0px;writing-mode:lr-tb;text-anchor:start;fill:#000000;fill-opacity:1;stroke:none;font-family:Droid Sans;-inkscape-font-specification:Droid Sans"
     x="473.13251"
     y="386.22321"
     id="text4518"
     sodipodi:linespacing="125%"><tspan
       sodipodi:role="line"
       id="tspan4520"
       x="473.13251"
       y="386.22321">Engineering</tspan></text>
  <path
     style="fill:none;stroke:#000000;stroke-width:2;stroke-linecap:butt;stroke-linejoin:miter;stroke-miterlimit:10;stroke-opacity:1;stroke-dasharray:none;marker-end:url(#Arrow2Mend)"
     d="m 376.46588,132.88998 c -63.33333,78.66667 -70.66667,190.66669 -70.66667,190.66669"
     id="path4526"
     inkscape:connector-curvature="0" />
  <path
     style="fill:none;stroke:#000000;stroke-width:2;stroke-linecap:butt;stroke-linejoin:miter;stroke-miterlimit:10;stroke-opacity:1;stroke-dasharray:none;marker-end:url(#Arrow2Mend)"
     d="m 659.13255,129.55665 c 33.33333,94 -48,205.33335 -48,205.33335"
     id="path4528"
     inkscape:connector-curvature="0" />
  <path
     style="fill:none;stroke:#000000;stroke-width:2;stroke-linecap:butt;stroke-linejoin:miter;stroke-miterlimit:10;stroke-opacity:1;stroke-dasharray:none;marker-end:url(#Arrow2Mend)"
     d="m 270.46587,136.88998 c -71.33333,88 -27.33333,199.33336 -27.33333,199.33336"
     id="path4530"
     inkscape:connector-curvature="0" />
</svg>
